<svg xmlns="http://www.w3.org/2000/svg" width="73.883" height="64.978" viewBox="0 0 73.883 64.978">
  <defs>
    <style>
      .cls-1 {
        fill: #9c65eb;
      }
    </style>
  </defs>
  <g id="checked" transform="translate(0 -30.855)">
    <g id="Group_53" data-name="Group 53" transform="translate(0 30.855)">
      <g id="Group_52" data-name="Group 52" transform="translate(0 0)">
        <path id="Path_64" data-name="Path 64" class="cls-1" d="M64.9,61.012a1.974,1.974,0,0,0-3.938.284c.049.672.073,1.361.073,2.048A28.541,28.541,0,1,1,32.489,34.8a28.276,28.276,0,0,1,17.117,5.7,1.974,1.974,0,0,0,2.372-3.156,32.2,32.2,0,0,0-19.489-6.5A32.489,32.489,0,1,0,64.978,63.344C64.978,62.563,64.95,61.778,64.9,61.012Z" transform="translate(0 -30.855)"/>
      </g>
    </g>
    <g id="Group_55" data-name="Group 55" transform="translate(9.07 33.064)">
      <g id="Group_54" data-name="Group 54" transform="translate(0 0)">
        <path id="Path_65" data-name="Path 65" class="cls-1" d="M125.418,48.417a7.71,7.71,0,0,0-10.891,0L86.083,76.86,76,66.777A7.7,7.7,0,0,0,65.109,77.668L82.474,95.033a5.109,5.109,0,0,0,7.217,0l35.726-35.726A7.71,7.71,0,0,0,125.418,48.417Zm-2.792,8.1L86.9,92.242a1.157,1.157,0,0,1-1.634,0L67.9,74.876a3.753,3.753,0,0,1,5.307-5.308L83.581,79.942a3.539,3.539,0,0,0,5,0l28.733-28.733a3.753,3.753,0,1,1,5.308,5.308Z" transform="translate(-62.857 -46.165)"/>
      </g>
    </g>
  </g>
</svg>
