<svg xmlns="http://www.w3.org/2000/svg" width="146.004" height="62.885" viewBox="0 0 146.004 62.885">
  <g id="Group_228" data-name="Group 228" transform="translate(-2499.495 -4194.434)">
    <text id="For_Babysitting" data-name="For Babysitting" transform="translate(2532 4254.319)" fill="#6b6b6b" font-size="12" font-family="Lato-Bold, Lato" font-weight="700"><tspan x="0" y="0">For Babysitting</tspan></text>
    <g id="Group_210" data-name="Group 210" transform="translate(2202.255 3729.038)">
      <path id="Path_74" data-name="Path 74" d="M331.878,494.544a16.88,16.88,0,0,1-.583,3.207,17.1,17.1,0,1,1-17.687-21.712L311.5,474.7l-9.354-5.912,1.717-2.705,13.387,8.463,4.818,3.053,1.839,1.158-1.717,2.7a13.745,13.745,0,1,0,5.588,16.286H306.319a9.636,9.636,0,0,1-1.085-3.207Z" transform="translate(0 0)" fill="#591ab4" stroke="#591ab4" stroke-width="1"/>
      <path id="Path_75" data-name="Path 75" d="M329.852,531.442a2.418,2.418,0,0,1-.041.422,2.181,2.181,0,0,1-4.284-.009,3.559,3.559,0,0,1-.032-.413,2.179,2.179,0,0,1,4.357,0Z" transform="translate(-12.867 -29.293)" fill="#591ab4" stroke="#591ab4" stroke-width="1"/>
      <g id="Group_66" data-name="Group 66" transform="translate(334.547 477.343)">
        <g id="Group_61" data-name="Group 61" transform="translate(0)">
          <path id="Path_76" data-name="Path 76" d="M383.563,508.018H373.2l-4.171,11.465h-1.8l11.146-30.616,11.128,30.616h-1.776Zm-.617-1.683-4.563-12.549-4.564,12.549Z" transform="translate(-366.768 -487.906)" fill="#591ab4" stroke="#591ab4" stroke-width="1"/>
          <path id="Path_77" data-name="Path 77" d="M389.575,518.981H387.1l-4.173-11.465h-9.9l-4.17,11.465h-2.5l11.614-31.906Zm-2.014-.657h1.076L377.977,489,367.3,518.324h1.1l4.171-11.465h10.82Zm-4.55-12.49H372.945l5.032-13.84Zm-9.127-.658h8.189l-4.095-11.258Z" transform="translate(-366.363 -487.075)" fill="#591ab4" stroke="#591ab4" stroke-width="1"/>
        </g>
        <g id="Group_62" data-name="Group 62" transform="translate(28.069 1.325)">
          <path id="Path_78" data-name="Path 78" d="M419.312,520.082V490.159H421V518.4h11.6v1.685Z" transform="translate(-418.983 -489.83)" fill="#591ab4" stroke="#591ab4" stroke-width="1"/>
          <path id="Path_79" data-name="Path 79" d="M432.636,520.127H418.7V489.546h2.343v28.239h11.594Zm-13.28-.658h12.623v-1.027H420.384V490.2h-1.028Z" transform="translate(-418.698 -489.546)" fill="#591ab4" stroke="#591ab4" stroke-width="1"/>
        </g>
        <g id="Group_63" data-name="Group 63" transform="translate(47.752 1.325)">
          <path id="Path_80" data-name="Path 80" d="M470.971,490.159v1.682H457.694v12.437h13.278v1.684H457.694V518.4h13.278v1.685H456.009V490.159Z" transform="translate(-455.68 -489.83)" fill="#591ab4" stroke="#591ab4" stroke-width="1"/>
          <path id="Path_81" data-name="Path 81" d="M471.015,520.127H455.4V489.546h15.619v2.34H457.739v11.78h13.276v2.341H457.739v11.778h13.276Zm-14.962-.658h14.305v-1.027H457.081V505.349h13.277v-1.026H457.081V491.229h13.277V490.2H456.053Z" transform="translate(-455.396 -489.546)" fill="#591ab4" stroke="#591ab4" stroke-width="1"/>
        </g>
        <g id="Group_64" data-name="Group 64" transform="translate(69.772 1.325)">
          <path id="Path_82" data-name="Path 82" d="M512.028,490.159v1.682H498.75v12.437h13.278v1.684H498.75V518.4h13.278v1.685H497.065V490.159Z" transform="translate(-496.737 -489.83)" fill="#591ab4" stroke="#591ab4" stroke-width="1"/>
          <path id="Path_83" data-name="Path 83" d="M512.072,520.127H496.453V489.546h15.619v2.34H498.795v11.78h13.278v2.341H498.795v11.778h13.278Zm-14.962-.658h14.305v-1.027H498.138V505.349h13.278v-1.026H498.138V491.229h13.278V490.2H497.11Z" transform="translate(-496.453 -489.546)" fill="#591ab4" stroke="#591ab4" stroke-width="1"/>
        </g>
        <g id="Group_65" data-name="Group 65" transform="translate(89.887 0.969)">
          <path id="Path_84" data-name="Path 84" d="M543.95,503.2a12.676,12.676,0,0,1-5.05-2.918,6.334,6.334,0,0,1,8.977-8.94,5.309,5.309,0,0,1,1.422,2.225l-1.515.6a4.636,4.636,0,0,0-1.1-1.684,4.662,4.662,0,0,0-6.585,6.6,12.553,12.553,0,0,0,3.517,2.3,14.823,14.823,0,0,1,6.04,3.61,8.852,8.852,0,1,1-15.016,7.686l1.589-.58a7.216,7.216,0,1,0,12.268-5.947A13.624,13.624,0,0,0,543.95,503.2Z" transform="translate(-534.272 -489.166)" fill="#591ab4" stroke="#591ab4" stroke-width="1"/>
          <path id="Path_85" data-name="Path 85" d="M543.073,520.173A9.256,9.256,0,0,1,534,512.451l-.04-.266,2.235-.816.046.418a6.887,6.887,0,1,0,11.709-5.679,13.35,13.35,0,0,0-4.426-2.88,13.045,13.045,0,0,1-5.167-2.994,6.663,6.663,0,0,1,9.441-9.406,5.672,5.672,0,0,1,1.5,2.358l.093.293-2.115.836-.116-.316a4.313,4.313,0,0,0-1.026-1.564,4.358,4.358,0,0,0-6.12.01,4.33,4.33,0,0,0,0,6.126,12.267,12.267,0,0,0,3.424,2.236,15.143,15.143,0,0,1,6.133,3.675,9.193,9.193,0,0,1-6.5,15.69Zm-8.382-7.556a8.535,8.535,0,0,0,14.415,4.4,8.274,8.274,0,0,0,2.505-6.053,8.188,8.188,0,0,0-2.5-6.011,14.569,14.569,0,0,0-5.909-3.531,12.934,12.934,0,0,1-3.647-2.38,4.99,4.99,0,0,1,7.045-7.069,5.113,5.113,0,0,1,1.053,1.493l.919-.364a5.126,5.126,0,0,0-1.233-1.8,5.866,5.866,0,0,0-4.262-1.76,5.8,5.8,0,0,0-4.255,1.765,5.713,5.713,0,0,0-1.756,4.21,5.819,5.819,0,0,0,1.755,4.256,12.412,12.412,0,0,0,4.922,2.839l.019.007a14.007,14.007,0,0,1,4.653,3.027,7.536,7.536,0,1,1-12.772,6.628Z" transform="translate(-533.957 -488.882)" fill="#591ab4" stroke="#591ab4" stroke-width="1"/>
        </g>
      </g>
    </g>
  </g>
</svg>
