<svg xmlns="http://www.w3.org/2000/svg" width="72.001" height="72.001" viewBox="0 0 72.001 72.001">
  <defs>
    <style>
      .cls-1 {
        fill: #9c65eb;
      }
    </style>
  </defs>
  <g id="rating" transform="translate(0)">
    <g id="Group_17" data-name="Group 17" transform="translate(17.155 39.32)">
      <g id="Group_16" data-name="Group 16">
        <path id="Path_44" data-name="Path 44" class="cls-1" d="M125.993,284.16a2.148,2.148,0,0,1,2.873.9l3.971,7.353a1.406,1.406,0,0,0,2.644-.668V281.01a1.406,1.406,0,0,0-2.813,0v5.174l-1.328-2.458a4.972,4.972,0,0,0-9.208,3.529l2.574,10.671a19.261,19.261,0,0,0,3.189,6.882l5.043,6.9a1.406,1.406,0,1,0,2.271-1.66l-5.043-6.9a16.46,16.46,0,0,1-2.725-5.882l-2.574-10.671A2.151,2.151,0,0,1,125.993,284.16Z" transform="translate(-121.991 -279.604)"/>
      </g>
    </g>
    <g id="Group_19" data-name="Group 19" transform="translate(27.831 22.166)">
      <g id="Group_18" data-name="Group 18">
        <path id="Path_45" data-name="Path 45" class="cls-1" d="M222.985,173.336a4.758,4.758,0,0,0-2.292.586,4.782,4.782,0,0,0-6.882-2.423,4.781,4.781,0,0,0-6.327-2.368v-6.724a4.788,4.788,0,0,0-9.575,0v2.438a1.406,1.406,0,1,0,2.813,0v-2.437a1.975,1.975,0,0,1,3.95,0V182.25a1.406,1.406,0,1,0,2.813,0V173.49a1.975,1.975,0,0,1,3.95,0v8.761a1.406,1.406,0,1,0,2.813,0v-6.619a1.975,1.975,0,1,1,3.95,0v6.619a1.406,1.406,0,1,0,2.813,0v-4.127a1.975,1.975,0,1,1,3.95,0v11.866a31.086,31.086,0,0,1-1.426,9.312l-1.984,6.326a1.406,1.406,0,1,0,2.684.842l1.984-6.326a33.9,33.9,0,0,0,1.555-10.154V178.123A4.793,4.793,0,0,0,222.985,173.336Z" transform="translate(-197.909 -157.619)"/>
      </g>
    </g>
    <g id="Group_21" data-name="Group 21" transform="translate(51.231 0)">
      <g id="Group_20" data-name="Group 20" transform="translate(0 0)">
        <path id="Path_46" data-name="Path 46" class="cls-1" d="M384.954,7.457a2.353,2.353,0,0,0-1.912-1.611l-4.307-.625-1.927-3.9A2.353,2.353,0,0,0,374.685,0h0a2.353,2.353,0,0,0-2.123,1.32l-1.925,3.9-4.307.627a2.368,2.368,0,0,0-1.311,4.039l3.118,3.037-.735,4.29a2.365,2.365,0,0,0,3.436,2.495l3.852-2.026,3.853,2.024a2.367,2.367,0,0,0,3.434-2.5l-.737-4.29,3.116-3.039A2.353,2.353,0,0,0,384.954,7.457Zm-5.845,3.616a2.366,2.366,0,0,0-.68,2.1l.624,3.631-3.262-1.714a2.367,2.367,0,0,0-2.2,0L370.325,16.8l.622-3.632a2.367,2.367,0,0,0-.682-2.1L367.626,8.5l3.646-.531a2.367,2.367,0,0,0,1.782-1.3l1.63-3.3,1.632,3.3A2.367,2.367,0,0,0,378.1,7.972l3.646.529Z" transform="translate(-364.301 0)"/>
      </g>
    </g>
    <g id="Group_23" data-name="Group 23" transform="translate(25.615 0)">
      <g id="Group_22" data-name="Group 22" transform="translate(0 0)">
        <path id="Path_47" data-name="Path 47" class="cls-1" d="M202.8,7.457a2.353,2.353,0,0,0-1.912-1.611l-4.307-.625-1.927-3.9A2.353,2.353,0,0,0,192.534,0h0a2.353,2.353,0,0,0-2.123,1.32l-1.925,3.9-4.307.627a2.368,2.368,0,0,0-1.311,4.039l3.117,3.037-.735,4.29a2.365,2.365,0,0,0,3.436,2.495l3.852-2.026,3.853,2.024a2.367,2.367,0,0,0,3.434-2.5l-.737-4.29L202.2,9.884A2.353,2.353,0,0,0,202.8,7.457Zm-5.845,3.616a2.367,2.367,0,0,0-.68,2.1L196.9,16.8l-3.262-1.714a2.367,2.367,0,0,0-2.2,0L188.174,16.8l.622-3.632a2.367,2.367,0,0,0-.682-2.1L185.476,8.5l3.646-.531a2.368,2.368,0,0,0,1.782-1.3l1.63-3.3,1.632,3.3a2.367,2.367,0,0,0,1.783,1.295L199.6,8.5Z" transform="translate(-182.15 0)"/>
      </g>
    </g>
    <g id="Group_25" data-name="Group 25" transform="translate(0 0)">
      <g id="Group_24" data-name="Group 24" transform="translate(0 0)">
        <path id="Path_48" data-name="Path 48" class="cls-1" d="M20.652,7.457a2.353,2.353,0,0,0-1.912-1.611l-4.307-.625-1.927-3.9A2.353,2.353,0,0,0,10.383,0h0A2.353,2.353,0,0,0,8.26,1.32l-1.925,3.9-4.307.627A2.368,2.368,0,0,0,.717,9.89l3.118,3.037L3.1,17.217a2.365,2.365,0,0,0,3.436,2.495l3.852-2.026,3.853,2.024a2.367,2.367,0,0,0,3.434-2.5l-.737-4.29,3.116-3.039A2.353,2.353,0,0,0,20.652,7.457Zm-5.845,3.616a2.366,2.366,0,0,0-.68,2.1L14.75,16.8l-3.262-1.714a2.367,2.367,0,0,0-2.2,0L6.024,16.8l.622-3.632a2.367,2.367,0,0,0-.681-2.1L3.325,8.5l3.646-.531a2.367,2.367,0,0,0,1.782-1.3l1.63-3.3,1.632,3.3A2.367,2.367,0,0,0,13.8,7.972l3.647.529Z" transform="translate(0 0)"/>
      </g>
    </g>
    <g id="Group_27" data-name="Group 27" transform="translate(27.832 33.779)">
      <g id="Group_26" data-name="Group 26">
        <path id="Path_49" data-name="Path 49" class="cls-1" d="M200.312,240.612a1.405,1.405,0,1,0,.412.994A1.416,1.416,0,0,0,200.312,240.612Z" transform="translate(-197.911 -240.2)"/>
      </g>
    </g>
  </g>
</svg>
